<svg width="34" height="34" viewBox="0 0 34 34" fill="none" xmlns="http://www.w3.org/2000/svg">
<g clip-path="url(#clip0_49_3484)">
<path fill-rule="evenodd" clip-rule="evenodd" d="M1 16.9952C1 8.15868 8.16344 0.995239 17 0.995239C25.8366 0.995239 33 8.15868 33 16.9952C33 25.8318 25.8366 32.9952 17 32.9952C8.16344 32.9952 1 25.8318 1 16.9952ZM9 17.1628C9 12.7591 12.5718 9.18724 16.9755 9.18724C21.3792 9.18724 24.951 12.7591 25 17.1628C25 20.6857 22.7492 23.6704 19.5688 24.7469C19.1774 24.7958 19.0306 24.5512 19.0306 24.3554V22.1536C19.0306 21.4197 18.7859 20.9304 18.4924 20.6857C20.2538 20.49 22.1132 19.8539 22.1132 16.7713C22.1132 15.8906 21.7706 15.1567 21.2814 14.6184C21.2852 14.6031 21.2906 14.5838 21.297 14.5607C21.3719 14.2905 21.5892 13.5064 21.1835 12.5145C21.1835 12.5145 20.4985 12.3187 18.9816 13.3463C18.3456 13.1995 17.6605 13.1016 16.9755 13.1016C16.2905 13.1016 15.6055 13.1505 14.9694 13.3463C13.4526 12.3187 12.7676 12.5145 12.7676 12.5145C12.3351 13.5716 12.6105 14.3927 12.6669 14.5609L12.6697 14.5695C12.1315 15.1567 11.8379 15.8417 11.8379 16.7224C11.8379 19.805 13.6973 20.49 15.4587 20.6857C15.263 20.8814 15.0184 21.2239 14.9694 21.7622C14.5291 21.9579 13.4037 22.3004 12.6697 21.0771C12.6697 21.0771 12.2294 20.2943 11.4465 20.2453C11.4465 20.2453 10.6636 20.2453 11.3976 20.7346C11.3976 20.7346 11.9358 20.9793 12.2783 21.909C12.2783 21.909 12.7676 23.4747 14.9694 22.9854V24.3554C14.9694 24.5512 14.8226 24.7958 14.4312 24.7469C11.2997 23.6704 9 20.6857 9 17.1628Z" fill="black"/>
</g>
<rect x="0.75" y="0.745239" width="32.5" height="32.5" rx="16.25" stroke="#FFDE59" stroke-width="0.5"/>
<defs>
<clipPath id="clip0_49_3484">
<rect x="1" y="0.995239" width="32" height="32" rx="16" fill="white"/>
</clipPath>
</defs>
</svg>
