<svg width="34" height="34" viewBox="0 0 34 34" fill="none" xmlns="http://www.w3.org/2000/svg">
<g clip-path="url(#clip0_49_3507)">
<path d="M33 16.9952C33 8.15868 25.8366 0.995239 17 0.995239C8.16344 0.995239 1 8.15868 1 16.9952C1 25.8318 8.16344 32.9952 17 32.9952C25.8366 32.9952 33 25.8318 33 16.9952Z" fill="white"/>
<path fill-rule="evenodd" clip-rule="evenodd" d="M24.8299 17.1771C24.8299 16.6098 24.779 16.0643 24.6845 15.5407H17.1499V18.6353H21.4554C21.2699 19.6353 20.7063 20.4825 19.859 21.0498V23.0571H22.4445C23.9572 21.6644 24.8299 19.6134 24.8299 17.1771Z" fill="#4285F4"/>
<path fill-rule="evenodd" clip-rule="evenodd" d="M17.1496 24.9952C19.3096 24.9952 21.1205 24.2788 22.4442 23.057L19.8587 21.0497C19.1423 21.5297 18.226 21.8134 17.1496 21.8134C15.066 21.8134 13.3023 20.4061 12.6732 18.5152H10.0005V20.5879C11.3169 23.2025 14.0223 24.9952 17.1496 24.9952Z" fill="#34A853"/>
<path fill-rule="evenodd" clip-rule="evenodd" d="M12.6735 18.5152C12.5135 18.0352 12.4226 17.5225 12.4226 16.9952C12.4226 16.4679 12.5135 15.9552 12.6735 15.4752V13.4025H10.0008C9.45899 14.4825 9.1499 15.7043 9.1499 16.9952C9.1499 18.2861 9.45899 19.5079 10.0008 20.5879L12.6735 18.5152Z" fill="#FBBC05"/>
<path fill-rule="evenodd" clip-rule="evenodd" d="M17.1496 12.1771C18.3241 12.1771 19.3787 12.5807 20.2078 13.3734L22.5023 11.0789C21.1169 9.78797 19.306 8.99524 17.1496 8.99524C14.0223 8.99524 11.3169 10.788 10.0005 13.4025L12.6732 15.4753C13.3023 13.5843 15.066 12.1771 17.1496 12.1771Z" fill="#EA4335"/>
</g>
<rect x="0.75" y="0.745239" width="32.5" height="32.5" rx="16.25" stroke="#FFDE59" stroke-width="0.5"/>
<defs>
<clipPath id="clip0_49_3507">
<rect x="1" y="0.995239" width="32" height="32" rx="16" fill="white"/>
</clipPath>
</defs>
</svg>
