<svg width="34" height="34" viewBox="0 0 34 34" fill="none" xmlns="http://www.w3.org/2000/svg">
<rect x="0.75" y="0.745239" width="32.5" height="32.5" rx="16.25" fill="white"/>
<rect x="0.75" y="0.745239" width="32.5" height="32.5" rx="16.25" stroke="#FFDE59" stroke-width="0.5"/>
<path d="M24.9269 28.8077H9.07312C7.73812 28.8077 6.63812 27.7584 6.57562 26.4246L5.78062 9.46211C5.76375 9.10586 6.04812 8.80774 6.405 8.80774H27.595C27.9519 8.80774 28.2362 9.10586 28.2194 9.46211L27.4244 26.4246C27.3619 27.7584 26.2619 28.8077 24.9269 28.8077Z" fill="#EF4E2D"/>
<path opacity="0.05" d="M17.0413 11.9784C14.5232 11.9784 12.6245 13.6009 12.6245 15.7528C12.6245 18.2246 14.8895 19.0528 16.5438 19.6571C18.5501 20.3903 19.2176 20.8009 19.2176 21.7884C19.2176 22.5728 18.1845 23.2346 16.962 23.2346C15.4226 23.2346 14.0413 22.0696 14.0276 22.0584L13.9626 21.9978C13.8463 21.8909 13.6951 21.8328 13.5395 21.8328C13.5157 21.8328 13.4913 21.834 13.4676 21.8371C13.287 21.8584 13.1245 21.9565 13.0226 22.1071L12.3688 23.0709C12.187 23.339 12.2401 23.7009 12.4907 23.9059L12.557 23.9603C13.0445 24.3546 14.7957 25.6371 16.9626 25.6371C19.5751 25.6371 21.6213 23.9465 21.6213 21.7884C21.6213 18.954 19.1651 18.0565 17.3713 17.4015C15.642 16.7696 15.0282 16.4253 15.0282 15.7528C15.0282 14.9578 15.8757 14.3809 17.0432 14.3809C17.9582 14.3809 18.7726 14.7459 19.1763 14.964C19.232 14.994 19.4332 15.1146 19.5451 15.1896L19.6263 15.244C19.7301 15.3134 19.8513 15.3496 19.9738 15.3496C20.0182 15.3496 20.0632 15.3446 20.107 15.3353C20.2732 15.299 20.417 15.1965 20.5063 15.0521L21.1051 14.0784C21.282 13.7903 21.1982 13.4134 20.9151 13.2284L20.817 13.164C20.292 12.8103 18.862 11.9784 17.0413 11.9784Z" fill="black"/>
<path opacity="0.07" d="M17.0413 12.2909C14.7013 12.2909 12.9369 13.779 12.9369 15.7528C12.9369 18.0065 14.9963 18.759 16.6507 19.364C18.6082 20.0796 19.53 20.5515 19.53 21.789C19.53 22.759 18.3782 23.5478 16.9619 23.5478C15.2969 23.5478 13.8388 22.3084 13.8238 22.2959L13.75 22.2278C13.6919 22.1746 13.6163 22.1453 13.5388 22.1453C13.5269 22.1453 13.515 22.1459 13.5025 22.1471C13.4125 22.1578 13.3307 22.2071 13.28 22.2821L12.6263 23.2459C12.5357 23.3796 12.5619 23.5609 12.6875 23.6634L12.7538 23.7178C13.22 24.0953 14.8975 25.3246 16.9613 25.3246C19.3988 25.3246 21.3075 23.7715 21.3075 21.7884C21.3075 19.1728 19.0644 18.3534 17.2625 17.6946C15.53 17.0615 14.7138 16.6634 14.7138 15.7528C14.7138 14.7771 15.6925 14.0684 17.0413 14.0684C18.025 14.0684 18.8932 14.4571 19.3225 14.6884C19.3913 14.7253 19.5994 14.8509 19.7169 14.929L19.7982 14.9834C19.85 15.0184 19.9107 15.0359 19.9719 15.0359C19.9944 15.0359 20.0163 15.0334 20.0388 15.029C20.1219 15.0109 20.1938 14.9596 20.2382 14.8871L20.8369 13.9134C20.9257 13.7696 20.8832 13.5809 20.7419 13.4884L20.6438 13.424C20.1413 13.0853 18.7757 12.2909 17.0413 12.2909Z" fill="black"/>
<path d="M22.3125 9.12024H21.0625C21.0625 6.53524 19.24 4.43274 17 4.43274C14.76 4.43274 12.9375 6.53524 12.9375 9.12024H11.6875C11.6875 5.84649 14.0706 3.18274 17 3.18274C19.9294 3.18274 22.3125 5.84649 22.3125 9.12024Z" fill="#EF4E2D"/>
<path d="M17.155 17.9878C15.4419 17.3615 14.4019 16.8984 14.4019 15.7522C14.4019 14.5953 15.5119 13.7553 17.0419 13.7553C18.095 13.7553 19.0162 14.1678 19.4719 14.4128C19.5494 14.4547 19.7681 14.5859 19.8919 14.669L19.9731 14.7234L20.5719 13.7497L20.4737 13.6853C19.9912 13.3597 18.69 12.6022 17.0425 12.6022C14.8806 12.6022 13.2506 13.9559 13.2506 15.7515C13.2506 17.7872 15.115 18.4684 16.76 19.0697C18.6787 19.7709 19.8437 20.304 19.8437 21.7878C19.8437 22.9303 18.5519 23.859 16.9631 23.859C15.1731 23.859 13.6344 22.5434 13.62 22.5309L13.54 22.4572L12.8862 23.4209L12.9525 23.4753C13.3975 23.8359 15 25.0115 16.9625 25.0115C19.2244 25.0115 20.9962 23.5953 20.9962 21.7878C20.9956 19.3909 18.955 18.6459 17.155 17.9878Z" fill="white"/>
</svg>
