<svg width="34" height="34" viewBox="0 0 34 34" fill="none" xmlns="http://www.w3.org/2000/svg">
<g clip-path="url(#clip0_49_3467)">
<path d="M1 16.9952C1 8.15868 8.16344 0.995239 17 0.995239C25.8366 0.995239 33 8.15868 33 16.9952C33 25.8318 25.8366 32.9952 17 32.9952C8.16344 32.9952 1 25.8318 1 16.9952Z" fill="black"/>
<path d="M15.4984 15.2955V14.6727C15.285 14.6442 15.068 14.6263 14.844 14.6263C12.173 14.6228 10 16.7977 10 19.4744C10 21.1153 10.818 22.5676 12.0699 23.4468C11.2626 22.5819 10.7682 21.4179 10.7682 20.1436C10.7682 17.506 12.8808 15.3561 15.4984 15.2955Z" fill="#25F4EE"/>
<path d="M15.6157 22.3576C16.8072 22.3576 17.7817 21.4073 17.8244 20.2255L17.8279 9.66443H19.7555C19.7164 9.4473 19.6951 9.22305 19.6951 8.99524H17.0633L17.0597 19.5563C17.017 20.7381 16.0425 21.6884 14.8511 21.6884C14.4812 21.6884 14.1327 21.5959 13.8233 21.4322C14.2216 21.991 14.876 22.3576 15.6157 22.3576Z" fill="#25F4EE"/>
<path d="M23.3584 13.2488V12.6615C22.6222 12.6615 21.9393 12.4444 21.3632 12.0671C21.8753 12.6544 22.5688 13.0816 23.3584 13.2488Z" fill="#25F4EE"/>
<path d="M21.3631 12.0671C20.8012 11.4228 20.4633 10.5828 20.4633 9.66443H19.7592C19.9405 10.6682 20.538 11.5296 21.3631 12.0671Z" fill="#FE2C55"/>
<path d="M14.8475 17.2568C13.6276 17.2568 12.6354 18.2499 12.6354 19.4708C12.6354 20.3216 13.1191 21.0619 13.8232 21.4321C13.5601 21.0691 13.4036 20.6241 13.4036 20.14C13.4036 18.9191 14.3958 17.926 15.6158 17.926C15.8434 17.926 16.0638 17.9652 16.2701 18.0292V15.3383C16.0567 15.3098 15.8398 15.292 15.6158 15.292C15.5766 15.292 15.541 15.2955 15.5019 15.2955V17.36C15.2921 17.296 15.0751 17.2568 14.8475 17.2568Z" fill="#FE2C55"/>
<path d="M23.3582 13.2488V15.2955C21.9925 15.2955 20.7264 14.8578 19.695 14.1174V19.4744C19.695 22.1476 17.522 24.3261 14.8475 24.3261C13.8161 24.3261 12.8558 23.9986 12.0698 23.4469C12.9554 24.3972 14.218 24.9953 15.6157 24.9953C18.2866 24.9953 20.4632 22.8204 20.4632 20.1436V14.7865C21.4946 15.5269 22.7607 15.9647 24.1264 15.9647V13.3307C23.8596 13.3307 23.6036 13.3022 23.3582 13.2488Z" fill="#FE2C55"/>
<path d="M19.695 19.4744V14.1173C20.7264 14.8577 21.9925 15.2955 23.3582 15.2955V13.2488C22.5687 13.0816 21.8751 12.6544 21.363 12.0671C20.5379 11.5296 19.944 10.6682 19.7554 9.66443H17.8278L17.8243 20.2255C17.7816 21.4072 16.8071 22.3576 15.6157 22.3576C14.8759 22.3576 14.2251 21.991 13.8196 21.4357C13.1155 21.062 12.6318 20.3252 12.6318 19.4744C12.6318 18.2535 13.624 17.2604 14.8439 17.2604C15.0715 17.2604 15.292 17.2995 15.4983 17.3636V15.2991C12.8807 15.3561 10.7682 17.506 10.7682 20.1436C10.7682 21.4179 11.2625 22.5783 12.0698 23.4469C12.8558 23.9986 13.8161 24.3261 14.8475 24.3261C17.5184 24.3261 19.695 22.1476 19.695 19.4744Z" fill="white"/>
</g>
<rect x="0.75" y="0.745239" width="32.5" height="32.5" rx="16.25" stroke="#FFDE59" stroke-width="0.5"/>
<defs>
<clipPath id="clip0_49_3467">
<rect x="1" y="0.995239" width="32" height="32" rx="16" fill="white"/>
</clipPath>
</defs>
</svg>
