<svg width="34" height="34" viewBox="0 0 34 34" fill="none" xmlns="http://www.w3.org/2000/svg">
<g clip-path="url(#clip0_49_3520)">
<path d="M1 16.9952C1 25.8318 8.16344 32.9952 17 32.9952C25.8366 32.9952 33 25.8318 33 16.9952C33 8.15868 25.8366 0.995239 17 0.995239C8.16344 0.995239 1 8.15868 1 16.9952Z" fill="#FF0000"/>
<path d="M24.6 13.0952C24.4 12.3952 23.9 11.8952 23.2 11.6952C22 11.3952 16.9 11.3952 16.9 11.3952C16.9 11.3952 11.9 11.3952 10.6 11.6952C9.90001 11.8952 9.4 12.3952 9.2 13.0952C9 14.3952 9 16.9952 9 16.9952C9 16.9952 9 19.5952 9.3 20.8952C9.5 21.5952 10 22.0952 10.7 22.2952C11.9 22.5952 17 22.5952 17 22.5952C17 22.5952 22 22.5952 23.3 22.2952C24 22.0952 24.5 21.5952 24.7 20.8952C25 19.5952 25 16.9952 25 16.9952C25 16.9952 25 14.3952 24.6 13.0952ZM15.4 19.3952V14.5952L19.6 16.9952L15.4 19.3952Z" fill="white"/>
</g>
<rect x="0.75" y="0.745239" width="32.5" height="32.5" rx="16.25" stroke="#FFDE59" stroke-width="0.5"/>
<defs>
<clipPath id="clip0_49_3520">
<rect x="1" y="0.995239" width="32" height="32" rx="16" fill="white"/>
</clipPath>
</defs>
</svg>
