<svg width="34" height="34" viewBox="0 0 34 34" fill="none" xmlns="http://www.w3.org/2000/svg">
<g clip-path="url(#clip0_49_3493)">
<path d="M9.42105 27.1005V2.53376L8.40126 1.85081C4.06526 3.59145 1 7.82639 1 12.7847V21.2058C1 27.7169 6.27832 32.9952 12.7895 32.9952H21.2105C25.1869 32.9952 28.6909 31.018 30.8248 28.0007V27.1005H9.42105Z" fill="#2962FF"/>
<path d="M22.0995 0.410436H13.6784C12.1247 0.410436 10.646 0.718647 9.28769 1.26433C6.48096 3.98938 4.41527 8.43402 4.41527 12.1999C4.41527 17.9018 5.20348 21.2399 7.54117 24.5005C7.72306 24.754 7.8418 25.0504 7.8578 25.3612C7.89401 26.0643 7.74917 27.3528 6.4818 28.5123C6.34538 28.637 6.43211 28.8652 6.61654 28.8728C7.4098 28.9073 9.01064 28.861 10.6561 28.1342C11.1252 27.9271 11.6591 27.9633 12.1121 28.2041C14.902 29.6854 18.1694 29.8841 21.2574 29.8841C25.1951 29.8841 29.1218 29.0083 31.7138 27.4285C33.0788 25.5043 33.889 23.1591 33.889 20.621V12.1999C33.889 5.68875 28.6106 0.410436 22.0995 0.410436Z" fill="#EEEEEE"/>
<path d="M27.7369 19.5216C25.9962 19.5216 24.579 18.1043 24.579 16.3637C24.579 14.623 25.9962 13.2058 27.7369 13.2058C29.4775 13.2058 30.8948 14.623 30.8948 16.3637C30.8948 18.1043 29.4775 19.5216 27.7369 19.5216ZM27.7369 14.4689C26.6927 14.4689 25.8421 15.3194 25.8421 16.3637C25.8421 17.4079 26.6927 18.2584 27.7369 18.2584C28.7811 18.2584 29.6316 17.4079 29.6316 16.3637C29.6316 15.3194 28.7811 14.4689 27.7369 14.4689Z" fill="#2962FF"/>
<path d="M23.3158 19.5216H22.4737C22.2413 19.5216 22.0527 19.3329 22.0527 19.1005V11.9426H23.3158V19.5216Z" fill="#2962FF"/>
<path d="M19.5263 13.4163V13.8533C18.9967 13.4525 18.3449 13.2058 17.6316 13.2058C15.891 13.2058 14.4737 14.623 14.4737 16.3637C14.4737 18.1043 15.891 19.5216 17.6316 19.5216C18.3449 19.5216 18.9967 19.2748 19.5263 18.874V19.1005C19.5263 19.3329 19.715 19.5216 19.9474 19.5216H20.7895V13.4163H19.5263ZM17.6316 18.2584C16.5874 18.2584 15.7369 17.4079 15.7369 16.3637C15.7369 15.3194 16.5874 14.4689 17.6316 14.4689C18.6758 14.4689 19.5263 15.3194 19.5263 16.3637C19.5263 17.4079 18.6758 18.2584 17.6316 18.2584Z" fill="#2962FF"/>
<path d="M14.6842 11.9426H7.94739V13.2058H12.4282L7.73687 18.6794H7.75876C7.6215 18.8571 7.52634 19.0693 7.52634 19.311V19.5216H13.8421C14.0746 19.5216 14.2632 19.3329 14.2632 19.1005V18.2584H9.78234L14.4737 12.7847H14.4518C14.5891 12.607 14.6842 12.3948 14.6842 12.1531V11.9426Z" fill="#2962FF"/>
</g>
<rect x="0.75" y="0.745239" width="32.5" height="32.5" rx="16.25" stroke="#FFDE59" stroke-width="0.5"/>
<defs>
<clipPath id="clip0_49_3493">
<rect x="1" y="0.995239" width="32" height="32" rx="16" fill="white"/>
</clipPath>
</defs>
</svg>
